<svg fill="none" viewBox="0 0 1440 1024">
  <path fill="#F5F5F5" d="M0 0h1440v1024H0z"/>
  <g id="logo-custom">
    <path fill="#CCC" d="M0 0h1440v1024H0z"/>
    <g id="boxes" fill="#000">
      <path id="box-10" d="M685 569h23v23h-23z"/>
      <path id="box-9" d="M685 569h23v23h-23z"/>
      <path id="box-8" transform="matrix(1 0 0 -1 685 592)" d="M0 0h23v23H0z"/>
      <path id="box-7" transform="matrix(1 0 0 -1 685 592)" d="M0 0h23v23H0z"/>
      <path id="box-6" transform="matrix(1 0 0 -1 685 592)" d="M0 0h23v23H0z"/>
      <path id="box-5" transform="rotate(-180 708 592)" d="M708 592h23v23h-23z"/>
      <path id="box-4" transform="rotate(-180 708 592)" d="M708 592h23v23h-23z"/>
      <path id="box-3" transform="matrix(-1 0 0 1 708 569)" d="M0 0h23v23H0z"/>
      <path id="box-2" transform="matrix(-1 0 0 1 708 569)" d="M0 0h23v23H0z"/>
      <path id="box-1" transform="matrix(-1 0 0 1 708 569)" d="M0 0h23v23H0z"/>
    </g>
  </g>
</svg>
